<svg width="97" height="46" viewBox="0 0 97 46" fill="none" xmlns="http://www.w3.org/2000/svg">
<path d="M14.3605 44.7002L14.2805 44.2502C14.1505 44.3352 14.0056 44.4127 13.8456 44.4827C13.6856 44.5527 13.514 44.6127 13.3306 44.6627C13.149 44.7127 12.9574 44.7518 12.7557 44.7802C12.5541 44.8085 12.3458 44.8226 12.1308 44.8226C11.9108 44.8226 11.6958 44.811 11.4859 44.7876C11.2759 44.766 11.0776 44.7268 10.8909 44.6702C10.706 44.6135 10.5351 44.5377 10.3785 44.4427C10.2235 44.3477 10.0894 44.2277 9.97605 44.0827C9.8644 43.9361 9.77691 43.7628 9.71358 43.5628C9.65192 43.3612 9.62109 43.1262 9.62109 42.8579V39.4483H10.6335V42.6829C10.6335 42.9312 10.671 43.1412 10.746 43.3128C10.8226 43.4828 10.9334 43.6211 11.0784 43.7278C11.2234 43.8328 11.4017 43.9086 11.6134 43.9553C11.8267 44.0019 12.0708 44.0252 12.3458 44.0252C12.5457 44.0252 12.7282 44.0144 12.8932 43.9927C13.0582 43.9711 13.214 43.9394 13.3606 43.8978C13.5073 43.8544 13.6481 43.8019 13.7831 43.7403C13.9197 43.677 14.0581 43.6045 14.198 43.5228V39.4483H15.2104V44.7002H14.3605Z" fill="white"/>
<path d="M22.3021 44.7002L22.2221 44.2402C22.0971 44.3252 21.9546 44.4035 21.7946 44.4752C21.6363 44.5452 21.4672 44.606 21.2872 44.6577C21.1072 44.7093 20.9181 44.7493 20.7197 44.7777C20.5231 44.8076 20.324 44.8226 20.1223 44.8226C19.659 44.8226 19.2399 44.7618 18.865 44.6402C18.4917 44.5168 18.1726 44.3377 17.9076 44.1027C17.6443 43.8678 17.441 43.5795 17.2977 43.2378C17.1543 42.8962 17.0827 42.5063 17.0827 42.068C17.0827 41.6414 17.1527 41.2589 17.2927 40.9206C17.4326 40.5807 17.6351 40.2924 17.9001 40.0557C18.1651 39.8191 18.4892 39.6383 18.8725 39.5133C19.2574 39.3883 19.6949 39.3258 20.1848 39.3258C20.3715 39.3258 20.5548 39.3366 20.7347 39.3583C20.9164 39.38 21.0905 39.4116 21.2572 39.4533C21.4238 39.4933 21.5813 39.5441 21.7296 39.6058C21.8796 39.6658 22.0163 39.7358 22.1396 39.8158V37.2861H23.152V44.7002H22.3021ZM22.1396 40.6257C22.0146 40.5457 21.8821 40.474 21.7421 40.4107C21.6021 40.3474 21.4563 40.294 21.3047 40.2507C21.153 40.2057 20.9955 40.1715 20.8322 40.1482C20.6689 40.1249 20.5006 40.1132 20.3273 40.1132C19.9723 40.1132 19.6574 40.154 19.3824 40.2357C19.1091 40.3174 18.8791 40.4398 18.6925 40.6032C18.5058 40.7665 18.3642 40.9706 18.2675 41.2156C18.1726 41.4589 18.1251 41.743 18.1251 42.068C18.1251 42.3929 18.1726 42.6787 18.2675 42.9254C18.3642 43.1703 18.5058 43.3753 18.6925 43.5403C18.8791 43.7053 19.1091 43.8294 19.3824 43.9128C19.6574 43.9944 19.9723 44.0352 20.3273 44.0352C20.5006 44.0352 20.6689 44.0236 20.8322 44.0002C20.9955 43.9769 21.153 43.9436 21.3047 43.9003C21.4563 43.8553 21.6021 43.8011 21.7421 43.7378C21.8821 43.6745 22.0146 43.6028 22.1396 43.5228V40.6257Z" fill="white"/>
<path d="M25.5117 44.7002V39.4483H26.5265V44.7002H25.5117ZM25.5117 38.3934V37.2861H26.5265V38.3934H25.5117Z" fill="white"/>
<path d="M38.3426 44.4552C38.2143 44.5069 38.0676 44.5552 37.9027 44.6002C37.7377 44.6435 37.5544 44.6818 37.3527 44.7152C37.1528 44.7485 36.9344 44.7743 36.6978 44.7926C36.4612 44.8126 36.207 44.8226 35.9354 44.8226C35.5438 44.8226 35.1705 44.7868 34.8155 44.7152C34.4606 44.6435 34.1315 44.5368 33.8282 44.3952C33.5249 44.2519 33.2507 44.0736 33.0058 43.8603C32.7608 43.647 32.5516 43.3987 32.3783 43.1154C32.2067 42.8321 32.0742 42.5138 31.9809 42.1605C31.8876 41.8055 31.8409 41.4164 31.8409 40.9931C31.8409 40.5932 31.8876 40.2207 31.9809 39.8757C32.0742 39.5291 32.2059 39.2142 32.3758 38.9309C32.5458 38.6476 32.7516 38.3959 32.9933 38.176C33.2349 37.956 33.504 37.771 33.8007 37.621C34.0973 37.471 34.4173 37.3577 34.7605 37.2811C35.1055 37.2027 35.4671 37.1636 35.8454 37.1636C36.0471 37.1636 36.2512 37.1719 36.4578 37.1886C36.6661 37.2036 36.8703 37.2277 37.0703 37.2611C37.2719 37.2927 37.466 37.3336 37.6527 37.3835C37.841 37.4335 38.016 37.4935 38.1776 37.5635V38.4759C37.9943 38.4009 37.8085 38.3376 37.6202 38.2859C37.4319 38.2343 37.2452 38.1926 37.0603 38.161C36.8753 38.1276 36.692 38.1035 36.5103 38.0885C36.3304 38.0735 36.1562 38.066 35.9879 38.066C35.6796 38.066 35.3896 38.0926 35.118 38.146C34.8464 38.1993 34.5964 38.2801 34.3681 38.3884C34.1398 38.4967 33.9356 38.6317 33.7557 38.7934C33.5774 38.955 33.4257 39.1442 33.3007 39.3608C33.1757 39.5774 33.0799 39.8224 33.0133 40.0957C32.9483 40.3674 32.9158 40.6665 32.9158 40.9931C32.9158 41.3581 32.9558 41.6847 33.0358 41.973C33.1174 42.2596 33.2291 42.5121 33.3707 42.7304C33.514 42.947 33.6823 43.132 33.8757 43.2853C34.069 43.437 34.2781 43.5611 34.5031 43.6578C34.7297 43.7544 34.9664 43.8244 35.213 43.8678C35.4596 43.9111 35.7079 43.9328 35.9579 43.9328C36.2545 43.9328 36.5262 43.9211 36.7728 43.8978C37.0194 43.8744 37.2411 43.8453 37.4377 43.8103C37.636 43.7753 37.8102 43.7369 37.9602 43.6953C38.1101 43.652 38.2376 43.6111 38.3426 43.5728V44.4552Z" fill="white"/>
<path d="M42.7196 44.6602C42.6479 44.6802 42.5688 44.6993 42.4821 44.7177C42.3971 44.7377 42.3038 44.7552 42.2021 44.7702C42.1021 44.7868 41.9938 44.7993 41.8772 44.8076C41.7605 44.8176 41.6355 44.8226 41.5022 44.8226C41.2406 44.8226 41.0198 44.7935 40.8398 44.7352C40.6598 44.6768 40.514 44.591 40.4024 44.4777C40.2924 44.3644 40.2124 44.2236 40.1624 44.0552C40.1141 43.8853 40.0899 43.6903 40.0899 43.4703V37.2861H41.1023V43.3478C41.1023 43.4528 41.1106 43.5453 41.1273 43.6253C41.1456 43.7036 41.1781 43.7694 41.2248 43.8228C41.2731 43.8761 41.3389 43.9161 41.4222 43.9428C41.5056 43.9694 41.6139 43.9827 41.7472 43.9827C41.9538 43.9827 42.138 43.9736 42.2996 43.9553C42.4613 43.9369 42.6013 43.9119 42.7196 43.8803V44.6602Z" fill="white"/>
<path d="M48.6264 44.7002L48.5464 44.2502C48.4164 44.3352 48.2714 44.4127 48.1114 44.4827C47.9514 44.5527 47.7798 44.6127 47.5965 44.6627C47.4148 44.7127 47.2232 44.7518 47.0216 44.7802C46.8199 44.8085 46.6116 44.8226 46.3966 44.8226C46.1767 44.8226 45.9617 44.811 45.7517 44.7876C45.5417 44.766 45.3434 44.7268 45.1568 44.6702C44.9718 44.6135 44.801 44.5377 44.6443 44.4427C44.4894 44.3477 44.3552 44.2277 44.2419 44.0827C44.1302 43.9361 44.0428 43.7628 43.9794 43.5628C43.9178 43.3612 43.8869 43.1262 43.8869 42.8579V39.4483H44.8993V42.6829C44.8993 42.9312 44.9368 43.1412 45.0118 43.3128C45.0885 43.4828 45.1993 43.6211 45.3443 43.7278C45.4892 43.8328 45.6676 43.9086 45.8792 43.9553C46.0925 44.0019 46.3366 44.0252 46.6116 44.0252C46.8116 44.0252 46.9941 44.0144 47.159 43.9927C47.324 43.9711 47.4798 43.9394 47.6265 43.8978C47.7731 43.8544 47.9139 43.8019 48.0489 43.7403C48.1856 43.677 48.3239 43.6045 48.4639 43.5228V39.4483H49.4763V44.7002H48.6264Z" fill="white"/>
<path d="M51.8285 44.7002V37.2861H52.8433V39.8582C52.9683 39.7783 53.1075 39.7058 53.2608 39.6408C53.4141 39.5758 53.5766 39.52 53.7482 39.4733C53.9216 39.4266 54.1015 39.3908 54.2882 39.3658C54.4765 39.3391 54.6665 39.3258 54.8581 39.3258C55.3214 39.3258 55.7405 39.3866 56.1155 39.5083C56.4904 39.6299 56.8095 39.8074 57.0728 40.0407C57.3378 40.274 57.5419 40.5615 57.6853 40.9031C57.8286 41.2431 57.9002 41.6314 57.9002 42.068C57.9002 42.4963 57.8302 42.8804 57.6903 43.2203C57.5503 43.5603 57.347 43.8494 57.0803 44.0877C56.8154 44.3244 56.4904 44.506 56.1054 44.6327C55.7222 44.7593 55.2864 44.8226 54.7981 44.8226C54.5981 44.8226 54.4015 44.8101 54.2082 44.7852C54.0149 44.7618 53.8299 44.7268 53.6532 44.6802C53.4783 44.6335 53.3141 44.576 53.1608 44.5077C53.0075 44.4394 52.8708 44.3602 52.7509 44.2702L52.6784 44.7002H51.8285ZM52.8433 43.5328C52.9683 43.6128 53.1 43.6845 53.2383 43.7478C53.3783 43.8111 53.5241 43.8653 53.6757 43.9103C53.8274 43.9536 53.9849 43.9869 54.1482 44.0102C54.3115 44.0336 54.4806 44.0452 54.6556 44.0452C55.0106 44.0452 55.3247 44.0036 55.598 43.9203C55.873 43.8353 56.103 43.7103 56.2879 43.5453C56.4746 43.3787 56.6154 43.172 56.7104 42.9254C56.807 42.6787 56.8554 42.3929 56.8554 42.068C56.8554 41.743 56.807 41.4589 56.7104 41.2156C56.6154 40.9723 56.4746 40.7698 56.2879 40.6082C56.103 40.4465 55.873 40.3257 55.598 40.2457C55.3247 40.164 55.0106 40.1232 54.6556 40.1232C54.4806 40.1232 54.3115 40.1349 54.1482 40.1582C53.9849 40.1815 53.8274 40.2157 53.6757 40.2607C53.5241 40.304 53.3783 40.3574 53.2383 40.4207C53.1 40.484 52.9683 40.5557 52.8433 40.6357V43.5328Z" fill="white"/>
<path d="M69.1464 46C69.0947 46 69.0472 45.9975 69.0039 45.9925C68.9622 45.9892 68.9222 45.9825 68.8839 45.9725C68.8472 45.9625 68.8122 45.9483 68.7789 45.93C68.7473 45.9133 68.7164 45.8925 68.6864 45.8675L67.3741 44.7827C67.2608 44.7976 67.1474 44.8076 67.0341 44.8126C66.9225 44.8193 66.8075 44.8226 66.6892 44.8226C66.2559 44.8226 65.8576 44.781 65.4943 44.6977C65.131 44.6127 64.8027 44.491 64.5094 44.3327C64.2161 44.1744 63.9587 43.9827 63.737 43.7578C63.5171 43.5311 63.3329 43.2762 63.1846 42.9929C63.0363 42.7079 62.9246 42.3979 62.8496 42.063C62.7746 41.7264 62.7371 41.3697 62.7371 40.9931C62.7371 40.6298 62.7755 40.2832 62.8521 39.9532C62.9305 39.6216 63.0454 39.3141 63.1971 39.0308C63.3487 38.7475 63.5362 38.4909 63.7595 38.2609C63.9845 38.031 64.2428 37.8352 64.5344 37.6735C64.8277 37.5102 65.1544 37.3844 65.5143 37.2961C65.8743 37.2077 66.2659 37.1636 66.6892 37.1636C67.1224 37.1636 67.5207 37.2061 67.884 37.2911C68.2473 37.3744 68.5756 37.4952 68.8689 37.6535C69.1622 37.8118 69.4188 38.0043 69.6388 38.2309C69.8604 38.4559 70.0454 38.7109 70.1937 38.9959C70.3421 39.2792 70.4537 39.5891 70.5287 39.9257C70.6037 40.2607 70.6412 40.6165 70.6412 40.9931C70.6412 41.4031 70.592 41.7922 70.4937 42.1605C70.3954 42.5271 70.2504 42.8629 70.0588 43.1678C69.8671 43.4728 69.6296 43.7419 69.3463 43.9752C69.063 44.2086 68.7373 44.3952 68.369 44.5352C68.4306 44.5618 68.499 44.5985 68.5739 44.6452C68.6506 44.6918 68.7356 44.751 68.8289 44.8226L70.2512 46H69.1464ZM66.6892 43.9827C67.0141 43.9827 67.3099 43.9478 67.5766 43.8778C67.8449 43.8061 68.0857 43.7061 68.299 43.5778C68.5123 43.4478 68.6981 43.292 68.8564 43.1104C69.0147 42.9287 69.1464 42.7271 69.2514 42.5054C69.358 42.2838 69.4372 42.0455 69.4888 41.7905C69.5405 41.5355 69.5663 41.2697 69.5663 40.9931C69.5663 40.7165 69.5405 40.4507 69.4888 40.1957C69.4372 39.9407 69.358 39.7024 69.2514 39.4808C69.1464 39.2592 69.0147 39.0575 68.8564 38.8759C68.6981 38.6942 68.5123 38.5392 68.299 38.4109C68.0857 38.2809 67.8449 38.181 67.5766 38.111C67.3083 38.0393 67.0125 38.0035 66.6892 38.0035C66.3659 38.0035 66.0701 38.0393 65.8018 38.111C65.5335 38.181 65.2927 38.2809 65.0794 38.4109C64.8661 38.5392 64.6802 38.6942 64.5219 38.8759C64.3636 39.0575 64.2311 39.2592 64.1245 39.4808C64.0195 39.7024 63.9412 39.9407 63.8895 40.1957C63.8378 40.4507 63.812 40.7165 63.812 40.9931C63.812 41.2697 63.8378 41.5355 63.8895 41.7905C63.9412 42.0455 64.0195 42.2838 64.1245 42.5054C64.2311 42.7271 64.3636 42.9287 64.5219 43.1104C64.6802 43.292 64.8661 43.4478 65.0794 43.5778C65.2927 43.7061 65.5326 43.8061 65.7993 43.8778C66.0676 43.9478 66.3642 43.9827 66.6892 43.9827Z" fill="white"/>
<path d="M76.8254 44.7002L76.743 44.2177C76.6146 44.311 76.4696 44.3952 76.308 44.4702C76.1464 44.5435 75.9705 44.6068 75.7806 44.6602C75.5906 44.7118 75.3889 44.7518 75.1756 44.7802C74.9623 44.8085 74.7407 44.8226 74.5107 44.8226C74.1824 44.8226 73.8766 44.7901 73.5933 44.7252C73.3117 44.6618 73.0659 44.5652 72.8559 44.4352C72.6476 44.3035 72.4835 44.1394 72.3635 43.9428C72.2452 43.7444 72.186 43.512 72.186 43.2453C72.186 43.072 72.2127 42.9112 72.266 42.7629C72.3193 42.6146 72.401 42.4804 72.511 42.3604C72.6226 42.2405 72.7643 42.1346 72.9359 42.043C73.1092 41.9497 73.315 41.8722 73.5533 41.8105C73.7916 41.7472 74.0641 41.6997 74.3707 41.668C74.6774 41.6347 75.0215 41.618 75.4031 41.618C75.5464 41.618 75.6922 41.6205 75.8406 41.6255C75.9889 41.6289 76.1289 41.6339 76.2605 41.6405C76.3922 41.6455 76.5255 41.6514 76.6605 41.658V41.4756C76.6605 41.2606 76.6271 41.0706 76.5605 40.9056C76.4955 40.739 76.3922 40.5998 76.2505 40.4882C76.1105 40.3749 75.9305 40.289 75.7106 40.2307C75.4906 40.1724 75.2273 40.1432 74.9207 40.1432C74.6574 40.1432 74.4216 40.1524 74.2133 40.1707C74.005 40.1874 73.8133 40.2124 73.6383 40.2457C73.465 40.279 73.3017 40.3199 73.1484 40.3682C72.9951 40.4165 72.8418 40.4715 72.6884 40.5332V39.7458C72.8268 39.6841 72.9751 39.6274 73.1334 39.5758C73.2934 39.5241 73.4683 39.48 73.6583 39.4433C73.8483 39.4066 74.0549 39.3783 74.2783 39.3583C74.5016 39.3366 74.7465 39.3258 75.0132 39.3258C75.4098 39.3258 75.7714 39.3675 76.098 39.4508C76.4247 39.5325 76.7046 39.6566 76.9379 39.8233C77.1729 39.9899 77.3545 40.1999 77.4829 40.4532C77.6112 40.7065 77.6753 41.0031 77.6753 41.3431V44.7002H76.8254ZM76.6605 42.3654H75.6481C75.2098 42.3654 74.8373 42.3813 74.5307 42.4129C74.2258 42.4446 73.9766 42.4946 73.7833 42.5629C73.59 42.6296 73.4492 42.7162 73.3609 42.8229C73.2742 42.9295 73.2309 43.057 73.2309 43.2053C73.2309 43.3403 73.2584 43.4603 73.3134 43.5653C73.37 43.6703 73.4575 43.7586 73.5758 43.8303C73.6958 43.9003 73.8483 43.9536 74.0333 43.9902C74.2199 44.0269 74.4441 44.0452 74.7057 44.0452C74.9073 44.0452 75.1015 44.0336 75.2881 44.0102C75.4764 43.9869 75.6531 43.9536 75.8181 43.9103C75.983 43.8653 76.1364 43.8111 76.278 43.7478C76.4197 43.6845 76.5471 43.6128 76.6605 43.5328V42.3654Z" fill="white"/>
<path d="M83.6721 44.5677C83.5771 44.6027 83.4738 44.636 83.3621 44.6677C83.2505 44.6993 83.1297 44.726 82.9997 44.7477C82.8714 44.771 82.7339 44.7893 82.5872 44.8026C82.4423 44.816 82.2889 44.8226 82.1273 44.8226C81.809 44.8226 81.5307 44.7918 81.2924 44.7302C81.0558 44.6702 80.8575 44.5743 80.6975 44.4427C80.5392 44.3094 80.42 44.1386 80.34 43.9303C80.2617 43.7219 80.2225 43.4703 80.2225 43.1753V40.2457H79.0852V39.4483H80.2625L80.385 38.136H81.2249V39.4483H83.7546V40.2457H81.2249V43.0404C81.2249 43.222 81.2482 43.3745 81.2949 43.4978C81.3432 43.6211 81.4165 43.7203 81.5149 43.7953C81.6132 43.8703 81.7382 43.9236 81.8898 43.9553C82.0431 43.9869 82.2248 44.0027 82.4348 44.0027C82.5514 44.0027 82.6656 43.9977 82.7772 43.9877C82.8905 43.9761 82.9989 43.9602 83.1022 43.9403C83.2072 43.9203 83.3072 43.8969 83.4021 43.8703C83.4971 43.8419 83.5871 43.8111 83.6721 43.7778V44.5677Z" fill="white"/>
<path d="M89.6439 44.7002L89.5614 44.2177C89.4331 44.311 89.2881 44.3952 89.1264 44.4702C88.9648 44.5435 88.789 44.6068 88.599 44.6602C88.409 44.7118 88.2074 44.7518 87.9941 44.7802C87.7808 44.8085 87.5591 44.8226 87.3292 44.8226C87.0009 44.8226 86.6951 44.7901 86.4118 44.7252C86.1301 44.6618 85.8843 44.5652 85.6744 44.4352C85.4661 44.3035 85.3019 44.1394 85.1819 43.9428C85.0636 43.7444 85.0044 43.512 85.0044 43.2453C85.0044 43.072 85.0311 42.9112 85.0844 42.7629C85.1378 42.6146 85.2194 42.4804 85.3294 42.3604C85.4411 42.2405 85.5827 42.1346 85.7544 42.043C85.9277 41.9497 86.1335 41.8722 86.3718 41.8105C86.6101 41.7472 86.8826 41.6997 87.1892 41.668C87.4958 41.6347 87.8399 41.618 88.2215 41.618C88.3649 41.618 88.5107 41.6205 88.659 41.6255C88.8073 41.6289 88.9473 41.6339 89.0789 41.6405C89.2106 41.6455 89.3439 41.6514 89.4789 41.658V41.4756C89.4789 41.2606 89.4456 41.0706 89.3789 40.9056C89.3139 40.739 89.2106 40.5998 89.069 40.4882C88.929 40.3749 88.749 40.289 88.529 40.2307C88.309 40.1724 88.0457 40.1432 87.7391 40.1432C87.4758 40.1432 87.24 40.1524 87.0317 40.1707C86.8234 40.1874 86.6317 40.2124 86.4568 40.2457C86.2835 40.279 86.1201 40.3199 85.9668 40.3682C85.8135 40.4165 85.6602 40.4715 85.5069 40.5332V39.7458C85.6452 39.6841 85.7935 39.6274 85.9518 39.5758C86.1118 39.5241 86.2868 39.48 86.4768 39.4433C86.6667 39.4066 86.8734 39.3783 87.0967 39.3583C87.32 39.3366 87.565 39.3258 87.8316 39.3258C88.2282 39.3258 88.5898 39.3675 88.9165 39.4508C89.2431 39.5325 89.5231 39.6566 89.7564 39.8233C89.9913 39.9899 90.173 40.1999 90.3013 40.4532C90.4296 40.7065 90.4938 41.0031 90.4938 41.3431V44.7002H89.6439ZM89.4789 42.3654H88.4665C88.0282 42.3654 87.6558 42.3813 87.3492 42.4129C87.0442 42.4446 86.7951 42.4946 86.6018 42.5629C86.4084 42.6296 86.2676 42.7162 86.1793 42.8229C86.0926 42.9295 86.0493 43.057 86.0493 43.2053C86.0493 43.3403 86.0768 43.4603 86.1318 43.5653C86.1885 43.6703 86.276 43.7586 86.3943 43.8303C86.5143 43.9003 86.6667 43.9536 86.8517 43.9902C87.0384 44.0269 87.2625 44.0452 87.5241 44.0452C87.7258 44.0452 87.9199 44.0336 88.1066 44.0102C88.2949 43.9869 88.4715 43.9536 88.6365 43.9103C88.8015 43.8653 88.9548 43.8111 89.0965 43.7478C89.2381 43.6845 89.3656 43.6128 89.4789 43.5328V42.3654Z" fill="white"/>
<path d="M92.7335 44.7002V39.4483H93.6459L93.7259 40.4007C93.8159 40.2657 93.9217 40.1349 94.0434 40.0082C94.165 39.8799 94.3066 39.7674 94.4683 39.6708C94.6299 39.5724 94.8124 39.4941 95.0157 39.4358C95.2207 39.3758 95.4499 39.3458 95.7031 39.3458C95.8931 39.3458 96.0673 39.3575 96.2256 39.3808C96.3856 39.4041 96.5222 39.4366 96.6355 39.4783V40.3782C96.5605 40.3582 96.4814 40.3407 96.3981 40.3257C96.3164 40.3107 96.2306 40.2982 96.1406 40.2882C96.0523 40.2765 95.9606 40.2682 95.8656 40.2632C95.7723 40.2582 95.6773 40.2557 95.5807 40.2557C95.3974 40.2557 95.2299 40.2724 95.0782 40.3057C94.9282 40.339 94.7916 40.3832 94.6683 40.4382C94.545 40.4915 94.4341 40.554 94.3358 40.6257C94.2392 40.6973 94.1533 40.7715 94.0783 40.8481C94.005 40.9231 93.9409 40.9981 93.8859 41.0731C93.8309 41.1481 93.785 41.2172 93.7484 41.2806V44.7002H92.7335Z" fill="white"/>
<path d="M3.71274 36.5044L0.0449219 44.66H1.36582L4.39137 37.6233L7.40076 44.66H8.77417L5.09019 36.5044H3.71274Z" fill="white"/>
<path d="M87.341 26.5715C86.832 26.9876 86.2907 27.3632 85.7171 27.6945C84.7598 28.2519 83.7378 28.6882 82.6431 28.9952C81.5484 29.3022 80.4093 29.4557 79.2217 29.4557C78.4825 29.4557 77.7635 29.3951 77.0606 29.2739C76.3577 29.1527 75.6751 28.979 75.0166 28.7488C74.3582 28.5185 73.724 28.2398 73.114 27.9166C72.5041 27.5935 71.9305 27.2178 71.3892 26.7977C71.9426 26.0948 72.4354 25.3475 72.8717 24.5558C73.3079 23.7641 73.6755 22.94 73.9785 22.0796C74.2814 21.2192 74.5117 20.3305 74.6733 19.4096C74.8349 18.4886 74.9156 17.5474 74.9156 16.5819C74.9156 15.6165 74.8349 14.6794 74.6733 13.7624C74.5117 12.8414 74.2774 11.9527 73.9785 11.0923C73.6755 10.2319 73.3079 9.40788 72.8717 8.61615C72.4354 7.82441 71.9426 7.07712 71.3892 6.37425C71.9305 5.95415 72.5081 5.58252 73.114 5.25128C73.724 4.92005 74.3582 4.64133 75.0166 4.41512C75.6751 4.18487 76.3577 4.01118 77.0606 3.88999C77.7635 3.76881 78.4865 3.70822 79.2217 3.70822C80.4053 3.70822 81.5444 3.86172 82.6431 4.16871C83.7378 4.47571 84.7638 4.90793 85.7171 5.46942C86.6745 6.02686 87.543 6.69741 88.3226 7.48106C89.1062 8.26472 89.7768 9.1332 90.3342 10.0865C90.8917 11.0439 91.3239 12.0658 91.6349 13.1605C91.9419 14.2552 92.0954 15.3943 92.0954 16.5779C92.0954 17.7615 91.9419 18.9006 91.6349 19.9953C91.5097 20.4396 91.3643 20.8759 91.1946 21.296L93.9899 24.1074C94.4949 23.1178 94.9028 22.0756 95.2098 20.9769C95.6057 19.5671 95.7996 18.0967 95.7996 16.5739C95.7996 15.051 95.6017 13.5806 95.2098 12.1709C94.814 10.7611 94.2606 9.44019 93.5375 8.2122C92.8185 6.98421 91.954 5.86528 90.9442 4.85542C89.9343 3.84556 88.8154 2.98112 87.5874 2.26209C86.3594 1.54307 85.0385 0.985628 83.6287 0.589762C82.219 0.193896 80.7486 0 79.2257 0C78.2361 0 77.2706 0.0848304 76.3254 0.254487C75.3802 0.424144 74.4673 0.670547 73.5907 0.989664C72.7101 1.30878 71.8659 1.69657 71.058 2.15303C70.2501 2.60949 69.4907 3.13057 68.7838 3.71226C68.0688 3.13057 67.3094 2.61352 66.5055 2.15303C65.7017 1.69657 64.8574 1.30474 63.9768 0.989664C63.0962 0.670547 62.1833 0.428184 61.2421 0.254487C60.2969 0.0848304 59.3314 0 58.3418 0C57.3521 0 56.3867 0.0848304 55.4415 0.254487C54.4962 0.424144 53.5833 0.670547 52.7067 0.989664C51.8261 1.30878 50.9819 1.69657 50.174 2.15303C49.3661 2.60949 48.6067 3.13057 47.8998 3.71226C47.1848 3.13057 46.4254 2.61352 45.6215 2.15303C44.8177 1.69657 43.9734 1.30474 43.0928 0.989664C42.2122 0.670547 41.2993 0.428184 40.3581 0.254487C39.4129 0.0848304 38.4475 0 37.4578 0C36.4682 0 35.5027 0.0848304 34.5575 0.254487C33.6123 0.424144 32.6993 0.670547 31.8228 0.989664C30.9422 1.30878 30.0979 1.69657 29.2901 2.15303C28.4822 2.60949 27.7227 3.13057 27.0158 3.71226C26.3009 3.13057 25.5414 2.61352 24.7376 2.15303C23.9337 1.69657 23.0895 1.30474 22.2089 0.989664C21.3283 0.670547 20.4154 0.428184 19.4742 0.254487C18.529 0.0848304 17.5635 0 16.5739 0C15.047 0 13.5806 0.197936 12.1709 0.589762C10.7611 0.985628 9.44019 1.53903 8.2122 2.26209C6.98421 2.98112 5.86528 3.84556 4.85542 4.85542C3.84556 5.86528 2.98111 6.98421 2.26209 8.2122C1.54307 9.44019 0.985625 10.7611 0.589759 12.1709C0.193893 13.5806 0 15.051 0 16.5739C0 18.0967 0.197933 19.5671 0.589759 20.9769C0.985625 22.3866 1.53903 23.7075 2.26209 24.9355C2.98111 26.1635 3.84556 27.2824 4.85542 28.2923C5.86528 29.3022 6.98421 30.1666 8.2122 30.8856C9.44019 31.6047 10.7611 32.1621 12.1709 32.558C13.5806 32.9538 15.051 33.1477 16.5739 33.1477C17.5635 33.1477 18.529 33.0629 19.4742 32.8932C20.4194 32.7236 21.3323 32.4772 22.2089 32.1581C23.0855 31.8389 23.9297 31.4512 24.7376 30.9947C25.5414 30.5382 26.3009 30.0172 27.0158 29.4355C27.7268 30.0172 28.4822 30.5342 29.2901 30.9947C30.0979 31.4512 30.9422 31.843 31.8228 32.1581C32.7034 32.4731 33.6163 32.7195 34.5575 32.8932C35.5027 33.0629 36.4682 33.1477 37.4578 33.1477C38.4475 33.1477 39.4129 33.0629 40.3581 32.8932C41.3034 32.7236 42.2163 32.4772 43.0928 32.1581C43.9694 31.8389 44.8137 31.4512 45.6215 30.9947C46.4254 30.5382 47.1848 30.0172 47.8998 29.4355C48.6107 30.0172 49.3661 30.5342 50.174 30.9947C50.9819 31.4512 51.8261 31.843 52.7067 32.1581C53.5873 32.4731 54.5003 32.7195 55.4415 32.8932C56.3867 33.0629 57.3521 33.1477 58.3418 33.1477C59.3314 33.1477 60.2969 33.0629 61.2421 32.8932C62.1873 32.7236 63.1002 32.4772 63.9768 32.1581C64.8534 31.8389 65.6976 31.4512 66.5055 30.9947C67.3094 30.5382 68.0688 30.0172 68.7838 29.4355C69.4947 30.0172 70.2501 30.5342 71.058 30.9947C71.8659 31.4512 72.7101 31.843 73.5907 32.1581C74.4713 32.4731 75.3842 32.7195 76.3254 32.8932C77.2706 33.0629 78.2361 33.1477 79.2257 33.1477C80.7526 33.1477 82.219 32.9498 83.6287 32.558C85.0385 32.1621 86.3594 31.6087 87.5874 30.8856C88.4357 30.3888 89.2274 29.8233 89.9707 29.1891C89.1022 28.3206 88.1125 27.3309 87.341 26.5594V26.5715ZM21.1182 19.4136C21.2758 20.3346 21.506 21.2233 21.809 22.0837C22.1119 22.9441 22.4795 23.7681 22.9158 24.5599C23.3521 25.3516 23.8449 26.0989 24.3983 26.8017C23.857 27.2218 23.2794 27.5935 22.6734 27.9207C22.0635 28.2479 21.4333 28.5266 20.7749 28.7528C20.1165 28.9831 19.4378 29.1567 18.735 29.2779C18.0321 29.3991 17.309 29.4597 16.5739 29.4597C15.3903 29.4597 14.2512 29.3062 13.1524 28.9992C12.0578 28.6922 11.0317 28.26 10.0784 27.6985C9.12108 27.1411 8.2526 26.4705 7.47298 25.6869C6.68933 24.9032 6.01878 24.0347 5.46134 23.0814C4.90389 22.1241 4.46763 21.1021 4.16063 20.0074C3.85364 18.9127 3.70014 17.7736 3.70014 16.59C3.70014 15.4065 3.85364 14.2673 4.16063 13.1726C4.46763 12.078 4.89985 11.0519 5.46134 10.0986C6.01878 9.14127 6.68933 8.27279 7.47298 7.49318C8.25664 6.70953 9.12512 6.03898 10.0784 5.48154C11.0358 4.92409 12.0578 4.48783 13.1524 4.18083C14.2471 3.87383 15.3863 3.72034 16.5739 3.72034C17.3131 3.72034 18.0321 3.78093 18.735 3.90211C19.4378 4.02329 20.1205 4.19699 20.7749 4.42724C21.4333 4.65749 22.0635 4.93621 22.6734 5.2634C23.2834 5.59464 23.857 5.96627 24.3983 6.38637C23.8449 7.08923 23.3521 7.83653 22.9158 8.62826C22.4795 9.42 22.1119 10.244 21.809 11.1044C21.506 11.9649 21.2758 12.8535 21.1182 13.7745C20.9607 14.6955 20.8799 15.6327 20.8799 16.5941C20.8799 17.5554 20.9607 18.5047 21.1182 19.4217V19.4136ZM29.2779 18.6501C29.1689 19.3247 29.0113 19.9751 28.8013 20.6052C28.5912 21.2354 28.3367 21.8453 28.0338 22.4311C27.7308 23.0168 27.3915 23.5783 27.0118 24.1074C26.6281 23.5783 26.2847 23.0168 25.9858 22.4311C25.6869 21.8453 25.4324 21.2354 25.2223 20.6052C25.0123 19.9751 24.8547 19.3207 24.7457 18.6501C24.6366 17.9755 24.5841 17.2888 24.5841 16.586C24.5841 15.8831 24.6366 15.1964 24.7457 14.5259C24.8547 13.8553 25.0123 13.205 25.2223 12.5708C25.4324 11.9366 25.6869 11.3266 25.9858 10.7449C26.2847 10.1592 26.6281 9.60177 27.0118 9.07261C27.3915 9.60177 27.7308 10.1592 28.0338 10.7449C28.3367 11.3307 28.5912 11.9366 28.8013 12.5708C29.0113 13.205 29.1689 13.8553 29.2779 14.5259C29.387 15.1964 29.4395 15.8831 29.4395 16.586C29.4395 17.2888 29.387 17.9796 29.2779 18.6501ZM42.0022 19.4136C42.1597 20.3346 42.39 21.2233 42.6929 22.0837C42.9959 22.9441 43.3635 23.7681 43.7998 24.5599C44.236 25.3516 44.7288 26.0989 45.2822 26.8017C44.741 27.2218 44.1633 27.5935 43.5574 27.9207C42.9474 28.2479 42.3173 28.5266 41.6589 28.7528C41.0004 28.9831 40.3218 29.1567 39.6189 29.2779C38.9161 29.3991 38.193 29.4597 37.4578 29.4597C36.7226 29.4597 35.9996 29.3991 35.2967 29.2779C34.5939 29.1567 33.9112 28.9831 33.2528 28.7528C32.5943 28.5226 31.9601 28.2438 31.3502 27.9207C30.7402 27.5935 30.1666 27.2218 29.6253 26.8017C30.1787 26.0989 30.6715 25.3516 31.1078 24.5599C31.5441 23.7681 31.9117 22.9441 32.2146 22.0837C32.5176 21.2233 32.7478 20.3346 32.9094 19.4136C33.071 18.4926 33.1518 17.5514 33.1518 16.586C33.1518 15.6206 33.071 14.6834 32.9094 13.7664C32.7478 12.8454 32.5135 11.9568 32.2146 11.0964C31.9117 10.236 31.5441 9.41192 31.1078 8.62019C30.6715 7.82846 30.1787 7.08116 29.6253 6.37829C30.1666 5.95819 30.7443 5.58656 31.3502 5.25533C31.9601 4.92409 32.5943 4.64537 33.2528 4.41916C33.9112 4.18891 34.5939 4.01521 35.2967 3.89403C35.9996 3.77285 36.7226 3.71226 37.4578 3.71226C38.193 3.71226 38.9161 3.77285 39.6189 3.89403C40.3218 4.01521 41.0045 4.18891 41.6589 4.41916C42.3173 4.64941 42.9474 4.92813 43.5574 5.25533C44.1673 5.58656 44.741 5.95819 45.2822 6.37829C44.7288 7.08116 44.236 7.82846 43.7998 8.62019C43.3635 9.41192 42.9959 10.236 42.6929 11.0964C42.39 11.9568 42.1597 12.8454 42.0022 13.7664C41.8447 14.6874 41.7639 15.6246 41.7639 16.586C41.7639 17.5474 41.8447 18.4966 42.0022 19.4136ZM50.1659 18.6501C50.0569 19.3247 49.8993 19.9751 49.6893 20.6052C49.4792 21.2354 49.2247 21.8453 48.9218 22.4311C48.6188 23.0168 48.2795 23.5783 47.8998 24.1074C47.5161 23.5783 47.1727 23.0168 46.8738 22.4311C46.5749 21.8453 46.3204 21.2354 46.1103 20.6052C45.9003 19.9751 45.7427 19.3207 45.6337 18.6501C45.5246 17.9755 45.4721 17.2888 45.4721 16.586C45.4721 15.8831 45.5246 15.1964 45.6337 14.5259C45.7427 13.8553 45.9003 13.205 46.1103 12.5708C46.3204 11.9366 46.5749 11.3266 46.8738 10.7449C47.1727 10.1592 47.5161 9.60177 47.8998 9.07261C48.2795 9.60177 48.6188 10.1592 48.9218 10.7449C49.2247 11.3307 49.4792 11.9366 49.6893 12.5708C49.8993 13.205 50.0569 13.8553 50.1659 14.5259C50.275 15.1964 50.3275 15.8831 50.3275 16.586C50.3275 17.2888 50.275 17.9796 50.1659 18.6501ZM62.8862 19.4136C63.0437 20.3346 63.2739 21.2233 63.5769 22.0837C63.8799 22.9441 64.2474 23.7681 64.6837 24.5599C65.12 25.3516 65.6128 26.0989 66.1662 26.8017C65.6249 27.2218 65.0473 27.5935 64.4413 27.9207C63.8314 28.2479 63.2012 28.5266 62.5428 28.7528C61.8844 28.9831 61.2057 29.1567 60.5029 29.2779C59.8 29.3991 59.077 29.4597 58.3418 29.4597C57.6066 29.4597 56.8835 29.3991 56.1807 29.2779C55.4778 29.1567 54.7951 28.9831 54.1367 28.7528C53.4783 28.5226 52.8441 28.2438 52.2341 27.9207C51.6242 27.5975 51.0506 27.2218 50.5093 26.8017C51.0627 26.0989 51.5555 25.3516 51.9918 24.5599C52.428 23.7681 52.7956 22.9441 53.0986 22.0837C53.4015 21.2233 53.6318 20.3346 53.7934 19.4136C53.9549 18.4926 54.0357 17.5514 54.0357 16.586C54.0357 15.6206 53.9549 14.6834 53.7934 13.7664C53.6318 12.8454 53.3975 11.9568 53.0986 11.0964C52.7956 10.236 52.428 9.41192 51.9918 8.62019C51.5555 7.82846 51.0627 7.08116 50.5093 6.37829C51.0506 5.95819 51.6282 5.58656 52.2341 5.25533C52.8441 4.92409 53.4783 4.64537 54.1367 4.41916C54.7951 4.18891 55.4778 4.01521 56.1807 3.89403C56.8835 3.77285 57.6066 3.71226 58.3418 3.71226C59.077 3.71226 59.8 3.77285 60.5029 3.89403C61.2057 4.01521 61.8884 4.18891 62.5428 4.41916C63.1972 4.64941 63.8314 4.92813 64.4413 5.25533C65.0513 5.58656 65.6249 5.95819 66.1662 6.37829C65.6128 7.08116 65.12 7.82846 64.6837 8.62019C64.2474 9.41192 63.8799 10.236 63.5769 11.0964C63.2739 11.9568 63.0437 12.8454 62.8862 13.7664C62.7286 14.6874 62.6478 15.6246 62.6478 16.586C62.6478 17.5474 62.7286 18.4966 62.8862 19.4136ZM71.0499 18.6501C70.9408 19.3247 70.7833 19.9751 70.5732 20.6052C70.3632 21.2354 70.1087 21.8453 69.8057 22.4311C69.5028 23.0168 69.1635 23.5783 68.7838 24.1074C68.4 23.5783 68.0566 23.0168 67.7577 22.4311C67.4588 21.8453 67.2043 21.2354 66.9943 20.6052C66.7842 19.9751 66.6267 19.3207 66.5176 18.6501C66.4086 17.9755 66.356 17.2888 66.356 16.586C66.356 15.8831 66.4086 15.1964 66.5176 14.5259C66.6267 13.8553 66.7842 13.205 66.9943 12.5708C67.2043 11.9366 67.4588 11.3266 67.7577 10.7449C68.0566 10.1592 68.4 9.60177 68.7838 9.07261C69.1635 9.60177 69.5028 10.1592 69.8057 10.7449C70.1087 11.3307 70.3632 11.9366 70.5732 12.5708C70.7833 13.205 70.9408 13.8553 71.0499 14.5259C71.159 15.1964 71.2115 15.8831 71.2115 16.586C71.2115 17.2888 71.159 17.9796 71.0499 18.6501Z" fill="white"/>
<path d="M94.3044 25.4969L84.8682 15.9961C83.208 18.5288 83.7897 22.1118 86.1972 24.4103C86.2335 24.4426 90.7618 28.9708 90.7981 29.0031L95.6657 33.8787C97.3259 31.346 96.9017 28.0902 94.3084 25.4928L94.3044 25.4969Z" fill="white"/>
</svg>
