
<svg width="108" height="32" viewBox="0 0 108 32" fill="none" xmlns="http://www.w3.org/2000/svg">
<path d="M11.8942 25.4225L6.74113 20.2342C5.83424 21.6173 6.15211 23.5746 7.46572 24.8301C7.48509 24.8483 9.95737 27.3195 9.97788 27.3377L12.6359 30.0002C13.5428 28.6171 13.3115 26.8387 11.8942 25.4214V25.4225Z" fill="black"/>
<path d="M23.0719 20.8787L22.9135 20.7203L22.9078 20.7146C22.9124 20.7055 22.9169 20.6976 22.901 20.7078L19.4967 17.3036C19.0513 16.8718 18.64 16.4047 18.231 15.9399C18.0191 15.7006 17.9097 15.2232 17.9826 14.9054C18.5648 12.4536 17.8983 11.7803 16.8182 10.7185C15.9489 9.86285 14.8734 8.78735 14.0178 7.91807C13.471 7.35753 13.5063 6.88587 13.9552 6.43698C14.4246 5.96759 14.8928 5.5039 15.3622 5.03451C15.7712 4.6255 16.1848 4.6255 16.5938 5.0254C17.0074 5.42529 17.6887 6.1157 18.2674 6.69446C19.3019 7.57742 19.3908 8.43873 19.1641 10.0223C19.0205 11.0204 19.5651 11.7153 20.4811 12.6313C21.3151 13.4653 21.4347 13.5713 22.2709 14.4029L25.8643 17.9963C26.8247 16.5163 26.5763 14.9259 25.1237 13.4687C23.5333 11.8783 21.8562 10.2331 20.3022 8.61076C20.0265 8.32594 19.8567 7.84287 19.8374 7.43842C19.8146 7.01119 20.0345 6.5737 20.1495 6.14191C20.3193 5.47997 20.2418 4.86817 19.7542 4.35777C19.368 3.95332 18.7152 3.26746 18.2959 2.89947C16.8889 1.67245 15.0364 1.70435 13.6715 2.97352C13.3593 3.2629 13.0642 3.57621 12.7657 3.87926C12.5356 4.10484 12.3043 4.33156 12.081 4.55487C10.5908 6.04507 10.4495 8.3886 12.0856 9.88791C12.0856 9.88791 15.2768 13.0586 16.7749 14.5567C17.5246 15.3064 17.7639 15.974 17.4323 16.9675C17.258 17.4825 17.217 18.2914 17.4289 18.73C17.6989 19.2871 18.3859 19.9547 18.3859 19.9547L18.5226 20.096C19.6631 21.2228 20.0732 21.6398 21.2023 22.7768C21.7936 23.3726 21.7879 23.6825 21.1988 24.2784C20.7329 24.7489 20.2509 25.2057 19.7941 25.6843C19.3874 26.1103 18.9624 26.116 18.5602 25.7298C18.4702 25.6444 18.3677 25.5475 18.2583 25.4439H18.2617C18.2617 25.4439 15.3303 22.5933 14.8643 21.9644C14.6741 21.707 14.4906 21.2045 14.5328 20.8833C14.878 18.2435 14.2229 17.5622 13.3798 16.7191C12.5185 15.8578 7.95561 11.2949 7.95561 11.2949C7.03506 12.6986 7.61838 14.8541 8.91262 16.1483L13.3137 20.5494C14.0987 21.3344 14.3118 21.9531 13.9814 22.9477C13.8105 23.4626 13.7535 24.1496 13.9267 24.6065C14.1158 25.1032 14.5396 25.527 14.5396 25.527L17.0005 27.972C18.0521 28.9255 19.7029 29.052 20.8639 28.2374C21.6603 27.6792 22.3643 26.9774 23.065 26.2949C24.8412 24.5666 24.8218 22.6344 23.0662 20.8741L23.0719 20.8787Z" fill="black"/>
<path d="M46.8772 28.8282C47.1493 28.1925 47.2872 27.4854 47.2872 26.7256C47.2872 25.9658 47.1493 25.2587 46.8784 24.623C46.6039 23.9836 46.2177 23.4194 45.7287 22.9467C45.241 22.4728 44.6517 22.1004 43.9784 21.8396C43.3064 21.5813 42.5642 21.4509 41.7718 21.4509C40.9794 21.4509 40.2246 21.5838 39.5513 21.8471C38.8818 22.1092 38.29 22.484 37.7923 22.9605C37.2958 23.4382 36.9059 24.0011 36.6351 24.6318C36.363 25.2599 36.2263 25.9645 36.2263 26.7268C36.2263 27.4891 36.3642 28.18 36.6363 28.8144C36.9071 29.45 37.2958 30.013 37.7923 30.4907C38.2888 30.9671 38.8818 31.342 39.5576 31.604C40.2321 31.8648 40.9719 31.999 41.7567 32.0002H48.2614V30.7126H45.5156L45.7826 30.4468C46.249 29.9816 46.6177 29.4375 46.8784 28.8282H46.8772ZM45.34 28.2615C45.1532 28.7291 44.8812 29.1454 44.5288 29.4977C44.179 29.8475 43.7666 30.1208 43.3001 30.3101C42.8312 30.497 42.3159 30.5922 41.7718 30.5922C41.2276 30.5922 40.7086 30.4982 40.2284 30.3101C39.7519 30.1208 39.3369 29.8475 38.9922 29.4977C38.6486 29.1491 38.374 28.7354 38.1747 28.2652C37.9766 27.7951 37.875 27.2772 37.875 26.7268C37.875 26.1764 37.9753 25.6448 38.1747 25.1784C38.374 24.7133 38.6486 24.302 38.9909 23.9547C39.3344 23.6049 39.7507 23.3316 40.2284 23.1423C40.7061 22.9555 41.2251 22.8602 41.7705 22.8602C42.3159 22.8602 42.8312 22.9542 43.3001 23.1423C43.7666 23.3316 44.1803 23.6049 44.5288 23.9535C44.8799 24.3058 45.152 24.7195 45.3388 25.1809C45.5269 25.6448 45.6221 26.1639 45.6221 26.7256C45.6221 27.2873 45.5269 27.7938 45.3388 28.2615H45.34Z" fill="black"/>
<path d="M55.685 26.0363H51.2767V27.3239H55.685V26.0363Z" fill="black"/>
<path d="M62.4567 21.6019L57.8466 31.8478H59.5091L63.3068 23.0062L67.0894 31.8478H68.8109L64.1857 21.6019H62.4567Z" fill="black"/>
<path d="M79.8768 27.3288C79.8768 28.4497 79.6298 29.2822 79.1421 29.8025C78.6481 30.3266 77.946 30.5911 77.0533 30.5911C76.1606 30.5911 75.4534 30.3266 74.9557 29.8025C74.4617 29.2809 74.2122 28.4484 74.2122 27.3275V21.6003H72.5635V27.3852C72.5635 28.886 72.9609 30.0407 73.747 30.8193C74.5319 31.6004 75.634 31.9966 77.0232 31.9966C78.4124 31.9966 79.5307 31.6004 80.3156 30.8193C81.1005 30.0395 81.4992 28.8847 81.4992 27.3852V21.6003H79.8793V27.3275L79.8768 27.3288Z" fill="black"/>
<path d="M85.0748 22.951H88.5741V31.8478H90.2241V22.951H93.7234V21.6019H85.0748V22.951Z" fill="black"/>
<path d="M106.102 22.9394C105.614 22.4705 105.024 22.1006 104.35 21.8398C103.68 21.5816 102.937 21.4512 102.145 21.4512C101.353 21.4512 100.597 21.5841 99.9246 21.8474C99.2539 22.1107 98.6621 22.483 98.1656 22.9557C97.6691 23.4271 97.2804 23.9876 97.0096 24.6232C96.7375 25.2589 96.5996 25.966 96.5996 26.7258C96.5996 27.4856 96.7375 28.1777 97.0096 28.8134C97.2792 29.4478 97.6691 30.012 98.1656 30.4897C98.6621 30.9661 99.2564 31.341 99.9322 31.603C100.609 31.8663 101.354 31.9992 102.145 31.9992C102.936 31.9992 103.68 31.8688 104.35 31.6106C105.019 31.3548 105.608 30.9824 106.101 30.5035C106.59 30.0295 106.977 29.4666 107.25 28.8284C107.523 28.1927 107.66 27.4869 107.66 26.7258C107.66 25.9648 107.523 25.2551 107.25 24.6157C106.977 23.9713 106.591 23.4083 106.102 22.9407V22.9394ZM105.706 28.2768C105.513 28.7457 105.239 29.1582 104.895 29.5042C104.551 29.849 104.14 30.1198 103.673 30.3079C103.205 30.4947 102.69 30.59 102.145 30.59C101.6 30.59 101.082 30.4959 100.602 30.3079C100.125 30.1186 99.709 29.8452 99.3654 29.4954C99.0219 29.1456 98.7473 28.7319 98.548 28.263C98.3499 27.7915 98.2496 27.2737 98.2496 26.7246C98.2496 26.1754 98.3499 25.6426 98.5492 25.1762C98.7473 24.7123 99.0232 24.301 99.3654 23.9525C99.7077 23.6039 100.125 23.3306 100.603 23.14C101.081 22.9532 101.6 22.8579 102.146 22.8579C102.693 22.8579 103.207 22.9519 103.675 23.14C104.142 23.3293 104.555 23.6002 104.902 23.9437C105.254 24.291 105.528 24.7047 105.715 25.1736C105.903 25.6438 105.998 26.1654 105.998 26.7246C105.998 27.2838 105.9 27.8053 105.707 28.2768H105.706Z" fill="black"/>
<path d="M56.7069 4.04767C56.465 4.04767 56.2731 4.12164 56.1289 4.26959C55.986 4.41753 55.9146 4.63068 55.9146 4.90776C55.9146 5.18485 55.986 5.38671 56.1289 5.53967C56.2731 5.69137 56.465 5.76785 56.7069 5.76785C56.9489 5.76785 57.1545 5.69012 57.2987 5.53214C57.4417 5.37542 57.5131 5.16855 57.5131 4.90776C57.5131 4.64698 57.4429 4.42882 57.305 4.27586C57.1671 4.12415 56.9677 4.04767 56.7082 4.04767H56.7069Z" fill="black"/>
<path d="M54.3962 5.76627C54.647 5.76627 54.8438 5.69104 54.988 5.53808C55.131 5.38637 55.2024 5.17574 55.2024 4.90617C55.2024 4.63661 55.131 4.41595 54.988 4.268C54.8438 4.12005 54.647 4.04608 54.3962 4.04608C54.1718 4.04608 53.9837 4.11504 53.8333 4.25421C53.6803 4.39212 53.6051 4.60903 53.6051 4.90492C53.6051 5.20081 53.6803 5.40643 53.8333 5.54936C53.985 5.69229 54.1731 5.76376 54.3962 5.76376V5.76627Z" fill="black"/>
<path d="M54.8802 12.3196H42.0415V7.00235H40.1872C39.4186 7.00235 38.7428 7.14027 38.1598 7.41861C37.5768 7.69695 37.1242 8.09314 36.7969 8.60719C36.471 9.12249 36.308 9.74186 36.308 10.4678C36.308 11.1398 36.4233 11.7028 36.6565 12.1592C36.8897 12.6155 37.2307 12.9628 37.6771 13.1998C38.1247 13.4368 38.6663 13.5559 39.302 13.5559H40.6172V13.8919C40.6172 14.3846 40.458 14.7821 40.1408 15.0867C39.8236 15.3914 39.3735 15.5431 38.7905 15.5431C38.4331 15.5431 38.0971 15.4967 37.7837 15.4027C37.4702 15.3086 37.1568 15.1808 36.8433 15.019L36.2252 16.1073C36.5926 16.3393 36.9838 16.5098 37.4 16.6176C37.8163 16.7242 38.2802 16.7781 38.7892 16.7781C39.48 16.7781 40.0655 16.6615 40.5483 16.4283C41.0322 16.1963 41.4021 15.8603 41.6566 15.4215C41.9111 14.9827 42.039 14.4598 42.039 13.8505V13.5546H56.3409V7.0011H54.8777V12.3184L54.8802 12.3196ZM40.6172 12.3196H39.4625C38.8983 12.3196 38.4808 12.1679 38.2074 11.8633C37.9354 11.5598 37.7987 11.0847 37.7987 10.4402C37.7987 9.74186 37.9993 9.20023 38.403 8.81532C38.8068 8.43041 39.3659 8.23733 40.0818 8.23733H40.6172V12.3196Z" fill="black"/>
<path d="M62.7952 15.0792C62.478 15.3876 62.0279 15.5418 61.4449 15.5418C61.0875 15.5418 60.7515 15.4955 60.4381 15.4014C60.1246 15.3074 59.8125 15.1795 59.4978 15.0178L58.8796 16.1061C59.247 16.338 59.6382 16.5085 60.0544 16.6163C60.4707 16.7229 60.9346 16.7768 61.4436 16.7768C62.473 16.7768 63.2729 16.5148 63.8408 15.9907C64.4101 15.4666 64.6947 14.7307 64.6947 13.7815V7.0011H62.8403C62.0718 7.0011 61.396 7.13901 60.813 7.41735C60.23 7.69569 59.7773 8.09189 59.4501 8.60594C59.1241 9.12124 58.9611 9.74061 58.9611 10.4665C58.9611 11.4696 59.2207 12.2344 59.7385 12.7622C60.2588 13.2913 60.9973 13.5546 61.9552 13.5546H63.2704V13.8367C63.2704 14.3558 63.1111 14.7708 62.7939 15.0792H62.7952ZM62.1169 12.3196C61.5539 12.3196 61.1352 12.1679 60.8619 11.8633C60.5898 11.5598 60.4531 11.0847 60.4531 10.4402C60.4531 9.74186 60.6537 9.20023 61.0575 8.81532C61.4612 8.43041 62.0204 8.23733 62.7363 8.23733H63.2716V12.3196H62.1169Z" fill="black"/>
<path d="M68.8598 1.86706C68.7169 1.88587 68.5777 1.90718 68.4435 1.93351L68.2292 1.97489C68.1125 1.92097 68.016 1.84073 67.9395 1.73291C67.8643 1.62508 67.8254 1.49594 67.8254 1.34298C67.8254 1.12859 67.8906 0.961832 68.021 0.846485C68.1502 0.729883 68.3132 0.672209 68.51 0.672209C68.6442 0.672209 68.7683 0.684747 68.8799 0.71233C68.9914 0.73866 69.0968 0.783796 69.1958 0.846485L69.4228 0.214579C69.1632 0.0716486 68.846 0.000183105 68.4699 0.000183105C68.0398 0.000183105 67.6963 0.105501 67.4418 0.314882C67.1873 0.525517 67.0594 0.822663 67.0594 1.20757C67.0594 1.39564 67.1045 1.56365 67.1948 1.71159C67.2838 1.85954 67.4092 1.98241 67.5709 2.0802L66.9001 2.17424V2.81868C67.0794 2.79235 67.2876 2.76101 67.5245 2.72465C67.7602 2.68954 68.0047 2.65569 68.2555 2.62434C68.5062 2.593 68.7457 2.56667 68.9739 2.5441C69.2021 2.52279 69.4027 2.50649 69.572 2.49771V1.79936C69.4992 1.79936 69.3989 1.80563 69.2685 1.81942C69.1394 1.83196 69.0015 1.84825 68.8598 1.86581V1.86706Z" fill="black"/>
<path d="M69.0479 4.04767H67.5847V13.5551H69.0479V4.04767Z" fill="black"/>
<path d="M93.0515 16.4748C93.1894 16.3181 93.2596 16.11 93.2596 15.8504C93.2596 15.5909 93.1894 15.3828 93.0515 15.2261C92.9135 15.0693 92.7179 14.9904 92.4672 14.9904C92.2164 14.9904 92.0183 15.0643 91.8754 15.2123C91.7325 15.359 91.661 15.5721 91.661 15.8492C91.661 16.1263 91.7325 16.3281 91.8754 16.4811C92.0183 16.6328 92.2164 16.7093 92.4672 16.7093C92.7179 16.7093 92.9123 16.6303 93.0515 16.4736V16.4748Z" fill="black"/>
<path d="M90.7344 16.4822C90.8786 16.3305 90.9501 16.1199 90.9501 15.8503C90.9501 15.5807 90.8786 15.3601 90.7344 15.2134C90.5915 15.0654 90.3997 14.9915 90.1577 14.9915C89.9157 14.9915 89.7327 15.0604 89.5797 15.1996C89.428 15.3388 89.3528 15.5557 89.3528 15.8503C89.3528 16.1449 89.428 16.3518 89.5797 16.496C89.7327 16.6389 89.9245 16.7104 90.1577 16.7104C90.3909 16.7104 90.5915 16.6339 90.7344 16.4822Z" fill="black"/>
<path d="M106.842 7.593C106.22 7.10027 105.303 6.85453 104.095 6.85453H103.142C103.302 6.56867 103.518 6.27528 103.785 5.97437C104.055 5.67472 104.364 5.38635 104.719 5.10801C105.073 4.83093 105.451 4.57516 105.854 4.34195C106.258 4.11 106.661 3.92194 107.062 3.77775L106.525 2.5014C105.873 2.74338 105.227 3.09193 104.592 3.54831C103.956 4.00469 103.384 4.525 102.872 5.10676C102.63 5.39262 102.413 5.68224 102.222 5.97312C102.03 6.264 101.858 6.56616 101.705 6.8796V8.08825H103.988C104.776 8.08825 105.366 8.24372 105.761 8.55215C106.155 8.86058 106.353 9.32824 106.353 9.95513V12.3185H92.0635V7.00122H90.6003V12.3185H80.4083V7.00122H78.554C77.7854 7.00122 77.1096 7.13914 76.5266 7.41748C75.9436 7.69581 75.491 8.09201 75.1638 8.60606C74.8378 9.12136 74.6748 9.74073 74.6748 10.4667C74.6748 11.1387 74.7901 11.7016 75.0233 12.158C75.2565 12.6144 75.5976 12.9617 76.0439 13.1987C76.4915 13.4356 77.0332 13.5547 77.6688 13.5547H78.984V13.8907C78.984 14.3835 78.8248 14.7809 78.5076 15.0856C78.1904 15.3903 77.7403 15.542 77.1573 15.542C76.8 15.542 76.4639 15.4956 76.1505 15.4015C75.837 15.3075 75.5236 15.1796 75.2102 15.0179L74.592 16.1062C74.9594 16.3381 75.3506 16.5086 75.7668 16.6165C76.1831 16.723 76.647 16.7769 77.156 16.7769C77.8469 16.7769 78.4324 16.6603 78.9151 16.4271C79.399 16.1952 79.7689 15.8592 80.0234 15.4204C80.2779 14.9815 80.4071 14.4587 80.4071 13.8494V13.5535H107.775V9.72568C107.775 8.79538 107.464 8.08323 106.841 7.5905L106.842 7.593ZM78.984 12.3198H77.8293C77.2664 12.3198 76.8476 12.168 76.5743 11.8634C76.3022 11.56 76.1655 11.0848 76.1655 10.4403C76.1655 9.74198 76.3661 9.20035 76.7699 8.81544C77.1736 8.43053 77.7328 8.23745 78.4487 8.23745H78.9853V12.3198H78.984Z" fill="black"/>
</svg>
